# xmcd CD database file
#
# Track frame offsets:
#	150
#	8852
#	24721
#	33182
#	48160
#	59149
#	69884
#	78048
#	92177
#	103451
#	113705
#	132384
#	142840
#	156772
#	173307
#	188360
#	201859
#	211367
#	226727
#	243101
#	257396
#	267246
#	283839
#	294874
#	307929
#	325040
#
# Disc length: 4480 seconds
#
# Revision: 2
# Processed by: cddbd v1.5.2PL0 Copyright (c) Steve Scherf et al.
# Submitted via: CDex 1.70beta2
#
DISCID=54117e1a
DTITLE=Greenhorns - Zlatá éra 1967 - 1974 [CD 1)
DYEAR=2007
DGENRE=Country
TTITLE0=Abilene
TTITLE1=Zatracenej život
TTITLE2=A tak já zas v tom lítám
TTITLE3=Houston
TTITLE4=Já jsem vandrák a karbaník
TTITLE5=Rovnou tady rovnou
TTITLE6=Hardy
TTITLE7=Vlak půlnoční
TTITLE8=Na sluneční straně hor
TTITLE9=Kočárem mým je vagón uhlí
TTITLE10=Proklatej vůz
TTITLE11=Odjíždím v dál
TTITLE12=Zátoka
TTITLE13=Svatební zvony
TTITLE14=Žloutnou už trávy
TTITLE15=T jako Texas
TTITLE16=John Hardy
TTITLE17=Červená řeka
TTITLE18=Přes pláně
TTITLE19=Drnová chajda
TTITLE20=Má whisky
TTITLE21=Dnešní noc bude dlouhá, má drahá
TTITLE22=Waterloo
TTITLE23=Jen tohle chci ti říct
TTITLE24=Poslední hrana
TTITLE25=Blues Folsomské věznice
EXTD=YEAR: 2007
EXTT0=
EXTT1=
EXTT2=
EXTT3=
EXTT4=
EXTT5=
EXTT6=
EXTT7=
EXTT8=
EXTT9=
EXTT10=
EXTT11=
EXTT12=
EXTT13=
EXTT14=
EXTT15=
EXTT16=
EXTT17=
EXTT18=
EXTT19=
EXTT20=
EXTT21=
EXTT22=
EXTT23=
EXTT24=
EXTT25=
PLAYORDER=
